<?xml version="1.0" standalone="no"?><!DOCTYPE svg PUBLIC "-//W3C//DTD SVG 1.1//EN" "http://www.w3.org/Graphics/SVG/1.1/DTD/svg11.dtd"><svg t="1557025088532" class="icon" style="" viewBox="0 0 1024 1024" version="1.1" xmlns="http://www.w3.org/2000/svg" p-id="1405" xmlns:xlink="http://www.w3.org/1999/xlink" width="200" height="200"><defs><style type="text/css"></style></defs><path d="M255.149502 442.259136c85.049834 0 139.481728 34.019934 149.687707 85.049834l27.215947-13.607973c3.401993 0 3.401993-3.401993 6.803987-3.401994h129.275747c3.401993 0 6.803987 0 6.803987 3.401994l37.421927 20.41196c17.009967-54.431894 68.039867-91.853821 136.079734-91.853821h34.019934V272.159468c0-20.41196-6.803987-183.707641-37.421927-217.727574-17.009967-17.009967-64.637874-34.019934-122.471761-47.627907L578.33887 156.491694c-3.401993 10.20598-10.20598 13.607973-17.009966 13.607974h-102.059801c-6.803987 0-13.607973-3.401993-17.009967-13.607974L398.033223 13.607973c-57.833887 10.20598-105.461794 27.215947-122.471761 40.823921C244.943522 88.451827 238.139535 302.777409 238.139535 306.179402v136.079734h17.009967z m329.993355-132.677741l102.059801-68.039867c6.803987-6.803987 17.009967-3.401993 23.813953 3.401994s3.401993 17.009967-3.401993 23.813953l-27.215947 17.009967v37.421927c0 10.20598-6.803987 17.009967-17.009967 17.009967h-68.039867c-6.803987 0-13.607973-3.401993-17.009967-13.607974s0-13.607973 6.803987-17.009967zM309.581395 244.943522c3.401993-6.803987 13.607973-10.20598 23.813954-3.401994l102.059801 68.039867c6.803987 3.401993 6.803987 10.20598 6.803986 17.009967s-10.20598 13.607973-17.009967 13.607974h-68.039867c-10.20598 0-17.009967-6.803987-17.009966-17.009967v-34.019934-3.401993l-27.215947-17.009967c-6.803987-3.401993-10.20598-13.607973-3.401994-23.813953z" fill="#f4ea2a" p-id="1406"></path><path d="M472.877076 136.079734h78.245848L591.946844 3.401993c-23.813953 0-44.225914-3.401993-64.637874-3.401993-27.215947 0-61.23588 3.401993-95.255814 6.803987L472.877076 136.079734zM629.368771 578.33887c-3.401993 0-6.803987 0-6.803987-3.401993l-57.833887-30.61794h-119.069767l-64.637874 30.61794c0 3.401993-3.401993 3.401993-6.803987 3.401993H302.777409l68.039867 81.647841 74.843854-61.23588c3.401993-3.401993 6.803987-3.401993 10.20598-3.401994h102.0598c3.401993 0 6.803987 0 10.20598 3.401994l74.843854 61.23588 61.235881-81.647841h-74.843854zM649.780731 544.318937h85.049834l44.225913-57.833887c3.401993-3.401993 3.401993-6.803987 3.401994-10.20598h-34.019934c-54.431894 0-91.853821 27.215947-98.657807 68.039867zM275.561462 544.318937h95.255814l3.401993-3.401993c0-47.627907-64.637874-64.637874-119.069767-64.637874H238.139535v17.009967c0 3.401993 0 6.803987 3.401993 10.20598l34.019934 40.82392z" fill="#f4ea2a" p-id="1407"></path><path d="M554.524917 629.368771h-88.451827l-71.441861 57.833887 17.009967 20.41196c3.401993 3.401993 6.803987 6.803987 13.607973 6.803987h170.099668c6.803987 0 10.20598-3.401993 13.607974-6.803987l17.009966-20.41196-71.44186-57.833887z" fill="#f4ea2a" p-id="1408"></path><path d="M142.883721 717.820598l-54.431894 30.61794c-27.215947 13.607973-47.627907 40.82392-54.431893 71.441861l-34.019934 180.305648c0 3.401993 0 10.20598 3.401993 13.607973 3.401993 3.401993 10.20598 6.803987 13.607974 6.803987h200.717608l-74.843854-302.777409zM986.578073 830.086379c-6.803987-30.61794-27.215947-57.833887-51.0299-71.441861l-54.431894-40.82392-88.451827 302.777409h210.923588c6.803987 0 10.20598-3.401993 13.607973-6.803987s3.401993-10.20598 3.401994-13.607973l-34.019934-170.099668zM836.890365 741.634551L694.006645 680.398671c-6.803987-3.401993-13.607973 0-20.411961 3.401993l-37.421927 47.627907c-10.20598 10.20598-23.813953 17.009967-40.82392 17.009967h-170.099668c-13.607973 0-30.61794-6.803987-40.82392-17.009967L343.601329 680.398671c-3.401993-6.803987-13.607973-6.803987-20.41196-3.401993l-139.481728 64.637873 68.039867 282.365449h108.863788c10.20598 0 17.009967-6.803987 17.009966-13.607973 6.803987-68.039867 64.637874-122.471761 136.079735-122.471761s125.873754 51.0299 136.079734 122.471761c0 10.20598 6.803987 13.607973 17.009967 13.607973h95.255814l74.843853-282.365449z" fill="#f4ea2a" p-id="1409"></path></svg>